<svg width="620" height="160" viewBox="0 0 620 160" fill="none" xmlns="http://www.w3.org/2000/svg">
<g filter="url(#filter0_i_1696_7)">
<path d="M198.12 116.794C195.482 116.794 193.47 116.072 192.082 114.627C190.694 113.183 190 111.154 190 108.541V51.2847C190 48.6025 190.694 46.5736 192.082 45.1981C193.539 43.8225 195.586 43.1348 198.224 43.1348H223.52C231.708 43.1348 238.024 45.0949 242.465 49.0151C246.907 52.9354 249.128 58.403 249.128 65.4182C249.128 69.9574 248.122 73.8776 246.109 77.1788C244.096 80.4801 241.181 83.0247 237.365 84.8129C233.617 86.6011 229.002 87.4952 223.52 87.4952L224.352 85.7414H228.62C231.535 85.7414 234.068 86.4636 236.22 87.9078C238.441 89.2834 240.348 91.4154 241.945 94.304L248.399 106.168C249.371 107.887 249.821 109.572 249.752 111.223C249.683 112.873 249.059 114.215 247.878 115.246C246.698 116.278 244.964 116.794 242.674 116.794C240.383 116.794 238.51 116.313 237.052 115.349C235.664 114.386 234.415 112.908 233.305 110.913L223.311 92.6534C222.27 90.7277 220.986 89.4209 219.46 88.7332C218.002 88.0454 216.198 87.7015 214.047 87.7015H206.135V108.541C206.135 111.154 205.442 113.183 204.053 114.627C202.735 116.072 200.757 116.794 198.12 116.794ZM206.135 76.1472H220.605C224.908 76.1472 228.135 75.2875 230.286 73.5681C232.507 71.8487 233.617 69.2696 233.617 65.8308C233.617 62.4608 232.507 59.9161 230.286 58.1967C228.135 56.4773 224.908 55.6176 220.605 55.6176H206.135V76.1472ZM308.506 117C301.289 117 294.939 115.453 289.456 112.358C284.043 109.194 279.81 104.792 276.756 99.1527C273.772 93.5131 272.279 86.9449 272.279 79.4484C272.279 73.74 273.112 68.6162 274.778 64.077C276.513 59.4691 278.977 55.5489 282.169 52.3164C285.362 49.0151 289.178 46.4705 293.62 44.6823C298.131 42.8941 303.092 42 308.506 42C315.863 42 322.247 43.5475 327.66 46.6424C333.073 49.7373 337.272 54.1046 340.255 59.7442C343.309 65.315 344.836 71.8487 344.836 79.3453C344.836 85.0537 343.969 90.2119 342.233 94.8198C340.499 99.4277 338.035 103.382 334.842 106.684C331.65 109.985 327.834 112.529 323.392 114.318C318.95 116.106 313.989 117 308.506 117ZM308.506 103.382C312.6 103.382 316.071 102.454 318.915 100.597C321.83 98.6713 324.051 95.9202 325.578 92.3439C327.174 88.6987 327.972 84.4003 327.972 79.4484C327.972 71.8831 326.272 66.0371 322.871 61.9106C319.471 57.7153 314.682 55.6176 308.506 55.6176C304.481 55.6176 301.011 56.5461 298.096 58.403C295.181 60.26 292.961 62.9766 291.433 66.553C289.907 70.1293 289.143 74.4278 289.143 79.4484C289.143 86.9449 290.844 92.8253 294.244 97.0894C297.645 101.285 302.399 103.382 308.506 103.382ZM377.929 116.794C375.291 116.794 373.279 116.072 371.891 114.627C370.503 113.183 369.809 111.154 369.809 108.541V50.4594C369.809 47.8459 370.503 45.8171 371.891 44.3728C373.279 42.9285 375.291 42.2063 377.929 42.2063C380.496 42.2063 382.474 42.9285 383.863 44.3728C385.25 45.8171 385.945 47.8459 385.945 50.4594V72.3301H420.089V50.4594C420.089 47.8459 420.782 45.8171 422.171 44.3728C423.558 42.9285 425.536 42.2063 428.104 42.2063C430.741 42.2063 432.754 42.9285 434.142 44.3728C435.529 45.8171 436.224 47.8459 436.224 50.4594V108.541C436.224 111.154 435.529 113.183 434.142 114.627C432.754 116.072 430.741 116.794 428.104 116.794C425.536 116.794 423.558 116.072 422.171 114.627C420.782 113.183 420.089 111.154 420.089 108.541V85.6382H385.945V108.541C385.945 111.154 385.25 113.183 383.863 114.627C382.543 116.072 380.565 116.794 377.929 116.794ZM465.607 116.794C463.665 116.794 462.068 116.346 460.819 115.453C459.639 114.559 458.876 113.355 458.529 111.842C458.252 110.329 458.564 108.644 459.466 106.787L486.115 48.912C487.225 46.5736 488.544 44.8886 490.071 43.8569C491.597 42.7566 493.367 42.2063 495.38 42.2063C497.392 42.2063 499.162 42.7566 500.689 43.8569C502.215 44.8886 503.499 46.5736 504.54 48.912L531.397 106.787C532.299 108.644 532.612 110.363 532.334 111.945C532.126 113.458 531.432 114.662 530.252 115.556C529.072 116.381 527.546 116.794 525.672 116.794C523.313 116.794 521.473 116.243 520.155 115.143C518.906 114.043 517.796 112.323 516.824 109.985L510.578 95.6451L517.032 100.081H473.623L480.077 95.6451L473.935 109.985C472.894 112.392 471.784 114.146 470.604 115.246C469.494 116.278 467.829 116.794 465.607 116.794ZM495.171 60.1568L481.847 91.6217L479.036 87.5983H511.619L508.808 91.6217L495.38 60.1568H495.171ZM561.891 116.794C559.462 116.794 557.588 116.14 556.27 114.834C555.021 113.458 554.396 111.532 554.396 109.056V50.2531C554.396 47.6396 555.021 45.6452 556.27 44.2696C557.588 42.8941 559.323 42.2063 561.475 42.2063C563.349 42.2063 564.771 42.5846 565.743 43.3411C566.784 44.0289 567.963 45.1981 569.282 46.8487L605.821 92.9629H603.01V49.8404C603.01 47.4333 603.634 45.5763 604.884 44.2696C606.202 42.8941 608.076 42.2063 610.505 42.2063C612.933 42.2063 614.773 42.8941 616.022 44.2696C617.34 45.5763 618 47.4333 618 49.8404V109.366C618 111.635 617.409 113.458 616.23 114.834C615.05 116.14 613.454 116.794 611.442 116.794C609.498 116.794 607.937 116.416 606.757 115.659C605.646 114.902 604.432 113.699 603.114 112.048L566.68 65.934H569.386V109.056C569.386 111.532 568.762 113.458 567.512 114.834C566.263 116.14 564.39 116.794 561.891 116.794Z" fill="url(#paint0_linear_1696_7)"/>
</g>
<g filter="url(#filter1_d_1696_7)">
<path d="M80 155C121.421 155 155 121.421 155 80C155 38.5786 121.421 5 80 5C38.5786 5 5 38.5786 5 80C5 121.421 38.5786 155 80 155Z" stroke="url(#paint1_linear_1696_7)" stroke-width="6" shape-rendering="crispEdges"/>
</g>
<g filter="url(#filter2_d_1696_7)">
<path fill-rule="evenodd" clip-rule="evenodd" d="M142.281 85.6899C141.965 88.8701 141.409 91.9797 140.632 95.0003H108.449C106.735 95.0003 105.346 96.3897 105.346 98.1037C105.346 99.8177 106.735 101.207 108.449 101.207H138.679C129.873 124.773 107.155 141.552 80.5182 141.552C46.2384 141.552 18.4492 113.763 18.4492 79.483C18.4492 45.2033 46.2384 17.4141 80.5182 17.4141C109.066 17.4141 133.112 36.687 140.356 62.9313H113.432C111.718 62.9313 110.329 64.3207 110.329 66.0348C110.329 67.7488 111.718 69.1382 113.432 69.1382H141.582V68.2967C142.243 71.9253 142.587 75.6639 142.587 79.483H71.2078C69.4938 79.483 68.1044 80.8724 68.1044 82.5865C68.1044 84.3005 69.4938 85.6899 71.2078 85.6899H142.281ZM74.2239 95.0003C72.5098 95.0003 71.1204 96.3897 71.1204 98.1037C71.1204 99.8177 72.5098 101.207 74.2239 101.207H77.2399C78.9538 101.207 80.3434 99.8177 80.3434 98.1037C80.3434 96.3897 78.9538 95.0003 77.2399 95.0003H74.2239ZM92.2326 66.0348C92.2326 64.3207 93.6221 62.9313 95.336 62.9313H101.368C103.082 62.9313 104.472 64.3207 104.472 66.0348C104.472 67.7488 103.082 69.1382 101.368 69.1382H95.336C93.6221 69.1382 92.2326 67.7488 92.2326 66.0348ZM87.2933 95.0003C85.5793 95.0003 84.1899 96.3897 84.1899 98.1037C84.1899 99.8177 85.5793 101.207 87.2933 101.207H96.3414C98.0554 101.207 99.4449 99.8177 99.4449 98.1037C99.4449 96.3897 98.0554 95.0003 96.3414 95.0003H87.2933Z" fill="url(#paint2_linear_1696_7)"/>
</g>
<defs>
<filter id="filter0_i_1696_7" x="190" y="42" width="428" height="75" filterUnits="userSpaceOnUse" color-interpolation-filters="sRGB">
<feFlood flood-opacity="0" result="BackgroundImageFix"/>
<feBlend mode="normal" in="SourceGraphic" in2="BackgroundImageFix" result="shape"/>
<feColorMatrix in="SourceAlpha" type="matrix" values="0 0 0 0 0 0 0 0 0 0 0 0 0 0 0 0 0 0 127 0" result="hardAlpha"/>
<feOffset/>
<feGaussianBlur stdDeviation="1"/>
<feComposite in2="hardAlpha" operator="arithmetic" k2="-1" k3="1"/>
<feColorMatrix type="matrix" values="0 0 0 0 0.8 0 0 0 0 0.8 0 0 0 0 0.8 0 0 0 0.75 0"/>
<feBlend mode="normal" in2="shape" result="effect1_innerShadow_1696_7"/>
</filter>
<filter id="filter1_d_1696_7" x="0" y="0" width="160" height="160" filterUnits="userSpaceOnUse" color-interpolation-filters="sRGB">
<feFlood flood-opacity="0" result="BackgroundImageFix"/>
<feColorMatrix in="SourceAlpha" type="matrix" values="0 0 0 0 0 0 0 0 0 0 0 0 0 0 0 0 0 0 127 0" result="hardAlpha"/>
<feOffset/>
<feGaussianBlur stdDeviation="1"/>
<feComposite in2="hardAlpha" operator="out"/>
<feColorMatrix type="matrix" values="0 0 0 0 0.8 0 0 0 0 0.8 0 0 0 0 0.8 0 0 0 0.75 0"/>
<feBlend mode="normal" in2="BackgroundImageFix" result="effect1_dropShadow_1696_7"/>
<feBlend mode="normal" in="SourceGraphic" in2="effect1_dropShadow_1696_7" result="shape"/>
</filter>
<filter id="filter2_d_1696_7" x="16.4492" y="15.4141" width="128.137" height="128.137" filterUnits="userSpaceOnUse" color-interpolation-filters="sRGB">
<feFlood flood-opacity="0" result="BackgroundImageFix"/>
<feColorMatrix in="SourceAlpha" type="matrix" values="0 0 0 0 0 0 0 0 0 0 0 0 0 0 0 0 0 0 127 0" result="hardAlpha"/>
<feOffset/>
<feGaussianBlur stdDeviation="1"/>
<feComposite in2="hardAlpha" operator="out"/>
<feColorMatrix type="matrix" values="0 0 0 0 0.8 0 0 0 0 0.8 0 0 0 0 0.8 0 0 0 0.75 0"/>
<feBlend mode="normal" in2="BackgroundImageFix" result="effect1_dropShadow_1696_7"/>
<feBlend mode="normal" in="SourceGraphic" in2="effect1_dropShadow_1696_7" result="shape"/>
</filter>
<linearGradient id="paint0_linear_1696_7" x1="421.334" y1="1.09696" x2="421.334" y2="191.159" gradientUnits="userSpaceOnUse">
<stop offset="0.158072" stop-color="white"/>
<stop offset="0.757903" stop-color="#DFDFDF"/>
</linearGradient>
<linearGradient id="paint1_linear_1696_7" x1="117.759" y1="1.89655" x2="46.3793" y2="158.103" gradientUnits="userSpaceOnUse">
<stop stop-color="white"/>
<stop offset="0.853662" stop-color="#DFDFDF"/>
</linearGradient>
<linearGradient id="paint2_linear_1696_7" x1="80.5182" y1="17.4141" x2="29.3734" y2="141.552" gradientUnits="userSpaceOnUse">
<stop stop-color="white"/>
<stop offset="0.416423" stop-color="#EFEFEF"/>
<stop offset="1" stop-color="#DFDFDF"/>
</linearGradient>
</defs>
</svg>
